<svg width="60" height="22" viewBox="0 0 60 22" fill="none" xmlns="http://www.w3.org/2000/svg">
<path d="M26.1599 9.32828H24.3567V15.4005H22.2734V9.32828H21.1259V8.32421L22.2734 7.76412V7.20402C22.2734 6.33429 22.4874 5.69906 22.9155 5.29834C23.3435 4.89762 24.0288 4.69727 24.9714 4.69727C25.6909 4.69727 26.3307 4.80428 26.8908 5.01829L26.358 6.54831C25.9391 6.41625 25.552 6.35022 25.1968 6.35022C24.9008 6.35022 24.6868 6.43902 24.5548 6.61661C24.4227 6.78965 24.3567 7.01277 24.3567 7.28599V7.76412H26.1599V9.32828Z" fill="#2F2E41"/>
<path d="M32.1889 15.4005L31.9088 14.4238H31.7996C31.5764 14.7789 31.26 15.0544 30.8501 15.2502C30.4403 15.4415 29.9736 15.5371 29.4499 15.5371C28.5528 15.5371 27.8766 15.2981 27.4213 14.8199C26.9659 14.3372 26.7382 13.6451 26.7382 12.7435V7.76412H28.8215V12.2244C28.8215 12.7754 28.9194 13.1897 29.1152 13.4675C29.311 13.7407 29.6229 13.8773 30.051 13.8773C30.6338 13.8773 31.055 13.6838 31.3146 13.2967C31.5742 12.9051 31.7039 12.2585 31.7039 11.3569V7.76412H33.7872V15.4005H32.1889Z" fill="#2F2E41"/>
<path d="M40.7178 13.1328C40.7178 13.916 40.4446 14.5126 39.8981 14.9224C39.3563 15.3322 38.5434 15.5371 37.4597 15.5371C36.9041 15.5371 36.4306 15.4984 36.039 15.421C35.6474 15.3481 35.2808 15.2389 34.9393 15.0931V13.3719C35.3263 13.554 35.7612 13.7066 36.2439 13.8295C36.7311 13.9525 37.1591 14.0139 37.528 14.0139C38.2839 14.0139 38.6618 13.7954 38.6618 13.3582C38.6618 13.1943 38.6117 13.0622 38.5116 12.9621C38.4114 12.8573 38.2384 12.7412 37.9925 12.6137C37.7466 12.4817 37.4187 12.3291 37.0089 12.1561C36.4215 11.9102 35.9889 11.6825 35.7111 11.473C35.4379 11.2636 35.2375 11.0245 35.11 10.7558C34.9871 10.4826 34.9256 10.1479 34.9256 9.75177C34.9256 9.07328 35.1874 8.54961 35.7111 8.18077C36.2393 7.80738 36.9861 7.62068 37.9515 7.62068C38.8713 7.62068 39.7661 7.82104 40.6358 8.22176L40.0074 9.72444C39.6249 9.56051 39.2675 9.42618 38.9351 9.32145C38.6026 9.21672 38.2634 9.16435 37.9173 9.16435C37.3026 9.16435 36.9952 9.33056 36.9952 9.66297C36.9952 9.84967 37.0931 10.0113 37.2889 10.1479C37.4893 10.2845 37.9242 10.4872 38.5935 10.7558C39.1901 10.9972 39.6272 11.2226 39.905 11.432C40.1827 11.6415 40.3877 11.8829 40.5197 12.1561C40.6518 12.4293 40.7178 12.7549 40.7178 13.1328Z" fill="#2F2E41"/>
<path d="M44.923 9.10288C44.4813 9.10288 44.1353 9.24404 43.8848 9.52636C43.6344 9.80413 43.4909 10.2003 43.4545 10.7149H46.3779C46.3688 10.2003 46.2345 9.80413 45.9749 9.52636C45.7154 9.24404 45.3647 9.10288 44.923 9.10288ZM45.2168 15.5371C43.9873 15.5371 43.0265 15.1979 42.3343 14.5194C41.6422 13.8409 41.2961 12.8801 41.2961 11.637C41.2961 10.3574 41.6149 9.36926 42.2524 8.67256C42.8944 7.97131 43.7801 7.62068 44.9094 7.62068C45.9886 7.62068 46.8287 7.92805 47.4298 8.54278C48.0309 9.15752 48.3314 10.0068 48.3314 11.0905V12.1014H43.4067C43.4295 12.6934 43.6048 13.1556 43.9326 13.488C44.2605 13.8204 44.7204 13.9866 45.3124 13.9866C45.7723 13.9866 46.2072 13.9388 46.617 13.8432C47.0268 13.7476 47.4548 13.595 47.9011 13.3855V14.9975C47.5368 15.1797 47.1475 15.314 46.7331 15.4005C46.3187 15.4916 45.8133 15.5371 45.2168 15.5371Z" fill="#2F2E41"/>
<path d="M51.5258 15.4005H49.4425V4.7724H51.5258V15.4005Z" fill="#2F2E41"/>
<path d="M52.0426 7.76412H54.324L55.7652 12.0604C55.8881 12.4338 55.9724 12.8755 56.0179 13.3855H56.0589C56.109 12.9165 56.2069 12.4748 56.3526 12.0604L57.7665 7.76412H60L56.7692 16.3773C56.4733 17.1741 56.0498 17.7707 55.4988 18.1668C54.9524 18.563 54.3126 18.7611 53.5794 18.7611C53.2197 18.7611 52.8668 18.7224 52.5207 18.645V16.992C52.7712 17.0512 53.0444 17.0808 53.3404 17.0808C53.7092 17.0808 54.0303 16.967 54.3035 16.7393C54.5812 16.5161 54.7975 16.1769 54.9524 15.7215L55.0753 15.3459L52.0426 7.76412Z" fill="#2F2E41"/>
<path d="M8.38624 0.0345294C7.48034 0.0347612 6.61162 0.351279 5.97104 0.914502C5.33048 1.47772 4.9705 2.24156 4.97023 3.03807V4.40252H3.4184C2.96948 4.40219 2.52488 4.4797 2.11006 4.63061C1.69524 4.78152 1.31833 5.00287 1.00091 5.28199C0.683476 5.56109 0.431756 5.89251 0.260147 6.25725C0.0885383 6.62199 0.000408968 7.01291 0.000801443 7.40763V10.4101H4.96943V13.139H3.4176C2.51144 13.1389 1.64234 13.4553 1.00144 14.0185C0.360538 14.5818 0.000316538 15.3458 0 16.1425V21.3316H3.4192C3.8677 21.3314 4.31175 21.2536 4.72603 21.1024C5.14029 20.9514 5.51663 20.73 5.8336 20.451C6.15055 20.172 6.40189 19.8408 6.57328 19.4764C6.74465 19.1119 6.83271 18.7215 6.83242 18.3271H6.83679V16.3447L6.82765 16.3457V3.71592L6.83521 3.7175V3.03859C6.83599 2.67659 6.99961 2.32956 7.29035 2.07324C7.58107 1.81692 7.97532 1.67213 8.38704 1.67047H14.3216V3.03859C14.3203 3.40043 14.1561 3.7471 13.865 4.00279C13.5738 4.25848 13.1793 4.4024 12.7678 4.40304H7.53752V6.04073H12.767C13.6729 6.04078 14.5417 5.72442 15.1823 5.16125C15.8229 4.59808 16.1829 3.83423 16.183 3.03772V0.0341797L8.38624 0.0345294ZM4.97023 8.77225H1.86538V7.40779C1.86606 7.04537 2.02987 6.69792 2.32103 6.44136C2.61218 6.18481 3.007 6.04001 3.4192 6.03863H4.97103L4.97023 8.77225ZM4.97023 18.3286C4.96955 18.6904 4.80588 19.0373 4.51505 19.2932C4.22422 19.5493 3.8299 19.6935 3.4184 19.6944H1.86458V16.1434C1.86495 15.7813 2.02885 15.4343 2.32021 15.1784C2.6116 14.9225 3.00659 14.7788 3.4184 14.779H4.97023V18.3286ZM7.53752 10.4099H11.4569V11.7758C11.4554 12.1376 11.2911 12.4841 11 12.7397C10.7088 12.9954 10.3145 13.1394 9.90305 13.1402H7.53752V14.779H9.90385C10.3525 14.7792 10.7968 14.7016 11.2114 14.5508C11.6259 14.3999 12.0026 14.1787 12.3198 13.8997C12.6371 13.6208 12.8887 13.2896 13.0603 12.9251C13.2319 12.5606 13.3201 12.1699 13.3199 11.7754H13.3214V8.7719H7.53752V10.4099Z" fill="#6C63FF"/>
</svg>
